<?xml version="1.0" encoding="utf-8"?>
<!-- Generator: Adobe Illustrator 16.0.0, SVG Export Plug-In . SVG Version: 6.00 Build 0)  -->
<!DOCTYPE svg PUBLIC "-//W3C//DTD SVG 1.1//EN" "http://www.w3.org/Graphics/SVG/1.1/DTD/svg11.dtd">
<svg version="1.1" id="Layer_1" xmlns="http://www.w3.org/2000/svg" xmlns:xlink="http://www.w3.org/1999/xlink" x="0px" y="0px"
	 width="128px" height="128px" viewBox="0 0 128 128" enable-background="new 0 0 128 128" xml:space="preserve" stroke="#d41370" fill="#d41370">
<g>
	<g>
		<polygon fill="#d41370" points="31.669,128 0.403,128 0.403,23.138 77.197,23.138 77.197,54.47 73.197,54.47 73.197,27.138 
			4.402,27.138 4.402,124 31.669,124 		"/>
	</g>
	<g>
		<rect x="63.185" y="33.581" fill="#d41370" width="4" height="21.427"/>
	</g>
	<g>
		<rect x="29.091" y="34.282" fill="#d41370" width="18.701" height="4"/>
	</g>
	<g>
		<polygon fill="#d41370" points="31.669,116.855 10.417,116.855 10.417,33.581 14.417,33.581 14.417,112.855 31.669,112.855 		"/>
	</g>
	<g>
		<g>
			<path fill="#d41370" d="M58.562,39.274h-4V18.177C54.562,10.36,48.287,4,40.574,4h-3.547c-7.714,0-13.991,6.36-13.991,14.177
				v21.097h-4V18.177C19.036,8.154,27.106,0,37.026,0h3.547c9.918,0,17.988,8.154,17.988,18.177V39.274z"/>
		</g>
	</g>
	<g>
		<path fill="#d41370" d="M127.598,128H37.001V60.008h90.596V128z M41.001,124h82.596V64.008H41.001V124z"/>
	</g>
	<g>
		<g>
			<path fill="#d41370" d="M83.404,98.011h-2.211c-9.92,0-17.99-8.153-17.99-18.176v-8.938h4v8.938
				c0,7.817,6.275,14.177,13.99,14.177h2.211c7.713,0,13.988-6.359,13.988-14.177v-8.938h4.002v8.938
				C101.395,89.857,93.324,98.011,83.404,98.011z"/>
		</g>
	</g>
	<g>
		<rect x="40.784" y="111.867" fill="#d41370" width="83.449" height="4"/>
	</g>
</g>
</svg>
