<?xml version="1.0" encoding="utf-8"?>
<!-- Generator: Adobe Illustrator 16.0.0, SVG Export Plug-In . SVG Version: 6.00 Build 0)  -->
<!DOCTYPE svg PUBLIC "-//W3C//DTD SVG 1.0//EN" "http://www.w3.org/TR/2001/REC-SVG-20010904/DTD/svg10.dtd">
<svg version="1.0" id="Layer_1" xmlns="http://www.w3.org/2000/svg" xmlns:xlink="http://www.w3.org/1999/xlink" x="0px" y="0px"
	 width="100px" height="100px" viewBox="0 0 100 100" enable-background="new 0 0 100 100" xml:space="preserve" fill="#d41370" stroke="#d41370">
<path d="M90,21.719v-8.392c-11.113-4.606-23.034-4.264-33.333,0v8.392c0,0.545,0.049,1.078,0.081,1.615H23.333
	c-3.667,0-6.667,2.998-6.667,6.667v33.333l-6.667,20V90h80v-6.666l-6.667-20V39.442C87.471,34.698,90,28.508,90,21.719z M23.333,30
	h34.642c1.328,4.123,3.613,7.819,6.602,10.811c2.493,2.487,5.455,4.484,8.756,5.856c1.159-0.483,2.26-1.069,3.334-1.701v18.368
	H23.333V30z M17.028,83.334L21.471,70h57.057l4.443,13.334H17.028z M77.373,36.099c-1.214,1.214-2.565,2.262-4.04,3.131
	c-1.468-0.867-2.822-1.917-4.049-3.14c-3.835-3.838-5.951-8.943-5.951-14.372v-3.664c3.259-0.923,6.615-1.39,10.023-1.39
	c3.385,0,6.729,0.467,9.977,1.388v3.666C83.333,27.147,81.218,32.253,77.373,36.099z"/>
<polygon points="51.953,35.287 40,47.237 34.713,41.954 30,46.667 40,56.667 56.667,40 "/>
</svg>
